<svg width="23" height="18" viewBox="0 0 23 18" xmlns="http://www.w3.org/2000/svg"><g stroke-width=".8" fill="none" fill-rule="evenodd"><path d="M6.6 16.068V1.2a.4.4 0 0 0-.4-.4h0a.4.4 0 0 0-.4.4v14.868l-3.954-3.95a.399.399 0 0 0-.564 0h0a.399.399 0 0 0 0 .564l4.21 4.21a1 1 0 0 0 1.415 0l4.211-4.21a.399.399 0 0 0 0-.564h0a.399.399 0 0 0-.564 0L6.6 16.068z" stroke="#FFF" fill="#FFF"/><path d="M21.718 4.918l-4.21-4.21a1 1 0 0 0-1.415 0l-4.211 4.21a.399.399 0 0 0 0 .564h0a.399.399 0 0 0 .564 0l3.954-3.95V16.4c0 .22.18.4.4.4h0a.4.4 0 0 0 .4-.4V1.532l3.954 3.95a.399.399 0 0 0 .564 0h0a.399.399 0 0 0 0-.564z" stroke="#27CFC3" fill="#27CFC3"/></g></svg>