<svg xmlns="http://www.w3.org/2000/svg" width="565" height="565" viewBox="0 0 565 565">
  <path fill="#fff" transform="translate(-125 -150) scale(1.5)" d="M269 116.3c-.3.3-3 .7-6 1-37.6 4-78.1 24.9-104.2 53.8-23.6 26.2-36.8 54.1-43.3 91.9-.4 1.9-.8 10.5-1 19-.4 19.8.7 29.8 5.1 46.9 19.3 74.3 87.8 127.4 163.9 127.2 15.5-.1 25.6-1.1 38.9-4.2 30.8-7.1 58.5-22.4 81.1-44.7l7.1-6.9-25.3-25.3-25.3-25.2-7.6 7.2c-19.5 18.5-44.1 28.2-70.2 27.5-10.9-.3-15.5-1-26.2-4.2-26-7.7-47.5-25.8-59.8-50.4-32.4-64.5 14-140.9 86.3-142.3 15.5-.3 31.7 3.2 45 9.9 8.5 4.3 19.5 11.6 19.5 13 0 .5-23.6 24.6-52.5 53.5L242 316.5l5.9 5.9 6 5.9 58.6-58.5c32.2-32.2 58.5-59 58.5-59.5 0-1.7-14.6-14.8-21.8-19.6-19.7-13.2-41.2-19.8-64.2-19.8-15.6.1-23.3 1.3-37.5 5.8-35.3 11.3-65.5 43.6-74.9 79.9-2.6 10.1-3.1 15.4-3 31.4.1 17 1.8 26.3 7.4 40.4 10.2 25.7 30.7 48.3 54.9 60.6 6.9 3.4 21.4 8.6 26.5 9.4 2.1.4 4.1.8 4.5 1 2.5 1.6 29.7 2.5 36 1.2 1.4-.3 4.2-.8 6.1-1.1 16.3-2.7 36-11.3 48.9-21.5 2.8-2.2 5.4-4 5.8-4 .4 0 6.7 5.9 13.8 13.1l13 13-4.5 4c-6.5 5.8-19.5 14.2-29.7 19.3-20.8 10.4-44.1 15.9-67.8 16-6.8 0-20.7-1-24.5-1.8-1.4-.3-5-1.1-8-1.7-37.5-7.6-73.8-32.5-96-65.9-9.9-14.9-17.9-34.4-22.2-53.6-1.8-8.2-2.1-13.3-2.2-29.4-.1-20.8.2-23.8 3.9-38 7.2-28.2 22.9-55.3 42.8-73.5 10.8-10 12.3-11.2 19.9-16.3 6.9-4.7 26.8-15.6 26.8-14.7 0 .2 1.9-.5 4.3-1.5 2.3-1 8.2-3 13.1-4.4 8-2.4 12.7-3.3 25.6-5.1 6-.9 29.3-.9 35-.1 8.3 1.3 10.5 1.6 13 2.1 1.4.3 3.6.7 5 1 19.1 3.6 50.8 20 66.7 34.5 7.7 7 6.8 6.9 12.9.9 2.9-2.9 5.4-5.7 5.4-6.1 0-1.9-16.2-15.4-27.5-22.8-14.2-9.2-40-20.3-52.7-22.5-1.7-.3-3.4-.8-3.7-1-.4-.2-2.7-.6-5.1-.9-2.5-.3-5.6-.8-7-1.2-2.9-.7-40.4-1.7-41-1.1z"/>
</svg>
