<svg width="20" height="20" viewBox="0 0 20 20" xmlns="http://www.w3.org/2000/svg"><g fill-rule="nonzero" fill="none"><path d="M11.857 20H8.143a1.202 1.202 0 0 1-1.167-.969l-.295-2.095a7.371 7.371 0 0 1-1.015-.595l-1.939.78a1.19 1.19 0 0 1-1.45-.494L.414 13.41a1.175 1.175 0 0 1 .265-1.502l1.67-1.31a6.67 6.67 0 0 1 0-1.183L.699 8.121C.23 7.727.12 7.091.42 6.594l1.851-3.2a1.18 1.18 0 0 1 1.44-.508l1.955.785A7.782 7.782 0 0 1 6.68 3.08l.29-2.067C7.076.416 7.567 0 8.143 0h3.714a1.2 1.2 0 0 1 1.166.967l.296 2.097c.355.172.691.369 1.015.595l1.939-.78a1.191 1.191 0 0 1 1.45.492l1.863 3.22a1.175 1.175 0 0 1-.265 1.502l-1.67 1.31c.018.198.028.397.028.597 0 .196-.01.391-.028.586l1.65 1.293c.469.394.578 1.03.279 1.527l-1.851 3.2c-.3.5-.906.708-1.439.51l-1.956-.787a7.782 7.782 0 0 1-1.014.591l-.29 2.067c-.106.597-.597 1.013-1.173 1.013zm-3.503-1.429h3.292l.314-2.237a.716.716 0 0 1 .426-.557 6.342 6.342 0 0 0 1.407-.823.71.71 0 0 1 .706-.098l2.102.845 1.642-2.838-1.786-1.399a.714.714 0 0 1-.267-.658c.036-.262.06-.535.06-.806 0-.274-.024-.549-.06-.823a.713.713 0 0 1 .267-.654l1.786-1.4L16.6 4.286 14.5 5.13a.711.711 0 0 1-.706-.098 6.105 6.105 0 0 0-1.402-.82.712.712 0 0 1-.431-.56l-.314-2.224H8.354L8.04 3.666a.716.716 0 0 1-.426.557 6.342 6.342 0 0 0-1.407.823.715.715 0 0 1-.706.098L3.4 4.3 1.757 7.137l1.786 1.399c.2.157.301.407.267.658-.036.262-.06.535-.06.806 0 .274.024.549.06.823a.713.713 0 0 1-.267.654l-1.786 1.4L3.4 15.714 5.5 14.87a.714.714 0 0 1 .706.098c.436.339.894.607 1.402.82.232.097.397.31.431.56l.314 2.224z" fill="#FFF"/><path d="M10 12.857A2.86 2.86 0 0 1 7.143 10 2.86 2.86 0 0 1 10 7.143 2.86 2.86 0 0 1 12.857 10 2.86 2.86 0 0 1 10 12.857zm0-4.286A1.43 1.43 0 0 0 8.571 10 1.43 1.43 0 0 0 10 11.429 1.43 1.43 0 0 0 11.429 10 1.43 1.43 0 0 0 10 8.571z" fill="#27CFC3"/></g></svg>