<?xml version="1.0" standalone="no"?>
<!DOCTYPE svg PUBLIC "-//W3C//DTD SVG 20010904//EN"
 "http://www.w3.org/TR/2001/REC-SVG-20010904/DTD/svg10.dtd">
<svg version="1.0" xmlns="http://www.w3.org/2000/svg"
 width="565.000000pt" height="565.000000pt" viewBox="0 0 565.000000 565.000000"
 preserveAspectRatio="xMidYMid meet">
<metadata>
Created by potrace 1.11, written by Peter Selinger 2001-2013
</metadata>
<g transform="translate(0.000000,565.000000) scale(0.100000,-0.100000)"
fill="#000000" stroke="none">
<path d="M2630 4480 c-652 -89 -1200 -539 -1405 -1152 -66 -200 -79 -286 -79
-538 0 -197 2 -238 22 -330 77 -353 222 -620 471 -871 153 -153 291 -252 471
-338 592 -282 1293 -200 1800 210 52 42 119 101 147 131 l53 53 -254 254 -255
254 -63 -58 c-138 -128 -287 -213 -448 -257 -73 -20 -108 -23 -250 -22 -190 1
-267 16 -408 84 -219 104 -369 252 -473 465 -72 149 -93 246 -93 430 0 173 19
263 83 401 55 116 101 183 188 275 125 131 287 226 468 275 57 15 103 19 245
18 162 0 182 -2 265 -28 105 -32 263 -112 320 -162 l40 -34 -527 -524 c-291
-287 -528 -527 -528 -532 0 -13 103 -114 115 -114 6 0 275 265 598 588 l588
588 -81 78 c-167 159 -362 259 -589 301 -107 19 -315 20 -418 0 -469 -89 -826
-442 -925 -915 -29 -138 -22 -373 16 -515 30 -115 113 -292 178 -380 177 -241
418 -396 715 -461 109 -24 339 -24 453 0 163 35 318 103 451 199 l77 55 131
-132 131 -131 -58 -46 c-196 -159 -435 -268 -687 -315 -136 -26 -421 -26 -550
0 -514 102 -943 451 -1137 925 -377 921 211 1952 1194 2097 149 22 410 15 548
-15 276 -59 531 -191 726 -373 l50 -47 62 62 62 63 -85 74 c-224 195 -501 331
-793 391 -111 23 -450 34 -562 19z"/>
</g>
</svg>
